<svg width="93" height="25" viewBox="0 0 93 25" fill="none" xmlns="http://www.w3.org/2000/svg">
<g clip-path="url(#clip0_15_4)">
<g clip-path="url(#clip1_15_4)">
<path d="M18.7822 7.53883L14.3589 15.3028L8.8381 25H0L14.3589 -0.225883L18.7822 7.53883Z" fill="white"/>
<path d="M31 25H22.1619L16.6411 15.3028H25.4792L31 25Z" fill="white"/>
</g>
<path d="M33.108 25L43.944 10.06V14.308L33.576 -0.200002H40.2L47.364 9.916L44.592 9.952L51.648 -0.200002H57.984L47.688 14.056V9.88L58.596 25H51.864L44.448 14.308H47.112L39.804 25H33.108ZM60.8786 25V-0.200002H66.7106V25H60.8786ZM80.9711 25.432C78.9551 25.432 77.0231 25.168 75.1751 24.64C73.3271 24.088 71.8391 23.38 70.7111 22.516L72.6911 18.124C73.7711 18.892 75.0431 19.528 76.5071 20.032C77.9951 20.512 79.4951 20.752 81.0071 20.752C82.1591 20.752 83.0831 20.644 83.7791 20.428C84.4991 20.188 85.0271 19.864 85.3631 19.456C85.6991 19.048 85.8671 18.58 85.8671 18.052C85.8671 17.38 85.6031 16.852 85.0751 16.468C84.5471 16.06 83.8511 15.736 82.9871 15.496C82.1231 15.232 81.1631 14.992 80.1071 14.776C79.0751 14.536 78.0311 14.248 76.9751 13.912C75.9431 13.576 74.9951 13.144 74.1311 12.616C73.2671 12.088 72.5591 11.392 72.0071 10.528C71.4791 9.664 71.2151 8.56 71.2151 7.216C71.2151 5.776 71.5991 4.468 72.3671 3.292C73.1591 2.092 74.3351 1.144 75.8951 0.447999C77.4791 -0.272001 79.4591 -0.632 81.8351 -0.632C83.4191 -0.632 84.9791 -0.440001 86.5151 -0.0560014C88.0511 0.303998 89.4071 0.855998 90.5831 1.6L88.7831 6.028C87.6071 5.356 86.4311 4.864 85.2551 4.552C84.0791 4.216 82.9271 4.048 81.7991 4.048C80.6711 4.048 79.7471 4.18 79.0271 4.444C78.3071 4.708 77.7911 5.056 77.4791 5.488C77.1671 5.896 77.0111 6.376 77.0111 6.928C77.0111 7.576 77.2751 8.104 77.8031 8.512C78.3311 8.896 79.0271 9.208 79.8911 9.448C80.7551 9.688 81.7031 9.928 82.7351 10.168C83.7911 10.408 84.8351 10.684 85.8671 10.996C86.9231 11.308 87.8831 11.728 88.7471 12.256C89.6111 12.784 90.3071 13.48 90.8351 14.344C91.3871 15.208 91.6631 16.3 91.6631 17.62C91.6631 19.036 91.2671 20.332 90.4751 21.508C89.6831 22.684 88.4951 23.632 86.9111 24.352C85.3511 25.072 83.3711 25.432 80.9711 25.432Z" fill="white"/>
</g>
<defs>
<clipPath id="clip0_15_4">
<rect width="93" height="25" fill="white"/>
</clipPath>
<clipPath id="clip1_15_4">
<rect width="31" height="25.2259" fill="white" transform="translate(0 -0.225883)"/>
</clipPath>
</defs>
</svg>
